# xmcd
#
# Track frame offsets: 
#        150
#        29870
#        57185
#        77090
#        92945
#        118580
#        148380
#        165160
#
# Disc length: 2440 seconds
#
# Revision: 0
# Processed by: cddbd v1.5.2PL0 Copyright (c) Steve Scherf et al.
# Submitted via: ExactAudioCopy v1.0b1
#
DISCID=6c098608
DTITLE=The Four Tops - Cat fish
DYEAR=1976
DGENRE=Soul
TTITLE0=Catfish
TTITLE1=Feel free
TTITLE2=You can´t hold back on love
TTITLE3=I know you like it
TTITLE4=Strung out for your love
TTITLE5=Love don´t come easy
TTITLE6=Disco daddy
TTITLE7=Look at me baby
EXTD=
EXTT0=
EXTT1=
EXTT2=
EXTT3=
EXTT4=
EXTT5=
EXTT6=
EXTT7=
PLAYORDER=
